<svg id="visual" viewBox="0 0 900 600" width="900" height="600" xmlns="http://www.w3.org/2000/svg" xmlns:xlink="http://www.w3.org/1999/xlink" version="1.1"><rect x="0" y="0" width="900" height="600" fill="#080808"></rect><path d="M0 370L75 407L150 376L225 439L300 371L375 386L450 376L525 377L600 351L675 390L750 425L825 428L900 416L900 601L825 601L750 601L675 601L600 601L525 601L450 601L375 601L300 601L225 601L150 601L75 601L0 601Z" fill="#3574f2"></path><path d="M0 465L75 429L150 414L225 398L300 452L375 456L450 395L525 427L600 422L675 459L750 427L825 440L900 440L900 601L825 601L750 601L675 601L600 601L525 601L450 601L375 601L300 601L225 601L150 601L75 601L0 601Z" fill="#2369d3"></path><path d="M0 490L75 450L150 438L225 423L300 448L375 448L450 475L525 459L600 470L675 486L750 472L825 445L900 424L900 601L825 601L750 601L675 601L600 601L525 601L450 601L375 601L300 601L225 601L150 601L75 601L0 601Z" fill="#1a5eb4"></path><path d="M0 514L75 480L150 467L225 497L300 484L375 477L450 517L525 492L600 476L675 488L750 492L825 495L900 485L900 601L825 601L750 601L675 601L600 601L525 601L450 601L375 601L300 601L225 601L150 601L75 601L0 601Z" fill="#1a5295"></path><path d="M0 500L75 520L150 497L225 520L300 498L375 508L450 515L525 513L600 539L675 529L750 535L825 510L900 500L900 601L825 601L750 601L675 601L600 601L525 601L450 601L375 601L300 601L225 601L150 601L75 601L0 601Z" fill="#1e4676"></path><path d="M0 551L75 553L150 550L225 545L300 555L375 555L450 544L525 556L600 558L675 541L750 575L825 543L900 553L900 601L825 601L750 601L675 601L600 601L525 601L450 601L375 601L300 601L225 601L150 601L75 601L0 601Z" fill="#223a59"></path></svg>