<svg id="visual" viewBox="0 0 900 600" width="900" height="600" xmlns="http://www.w3.org/2000/svg" xmlns:xlink="http://www.w3.org/1999/xlink" version="1.1"><path d="M0 61L13.7 59C27.3 57 54.7 53 82 50C109.3 47 136.7 45 163.8 49C191 53 218 63 245.2 71C272.3 79 299.7 85 327 83C354.3 81 381.7 71 409 64C436.3 57 463.7 53 491 59C518.3 65 545.7 81 573 87C600.3 93 627.7 89 654.8 83C682 77 709 69 736.2 66C763.3 63 790.7 65 818 66C845.3 67 872.7 67 886.3 67L900 67L900 0L886.3 0C872.7 0 845.3 0 818 0C790.7 0 763.3 0 736.2 0C709 0 682 0 654.8 0C627.7 0 600.3 0 573 0C545.7 0 518.3 0 491 0C463.7 0 436.3 0 409 0C381.7 0 354.3 0 327 0C299.7 0 272.3 0 245.2 0C218 0 191 0 163.8 0C136.7 0 109.3 0 82 0C54.7 0 27.3 0 13.7 0L0 0Z" fill="#494949"></path><path d="M0 151L13.7 145C27.3 139 54.7 127 82 123C109.3 119 136.7 123 163.8 140C191 157 218 187 245.2 193C272.3 199 299.7 181 327 171C354.3 161 381.7 159 409 163C436.3 167 463.7 177 491 192C518.3 207 545.7 227 573 230C600.3 233 627.7 219 654.8 210C682 201 709 197 736.2 190C763.3 183 790.7 173 818 168C845.3 163 872.7 163 886.3 163L900 163L900 65L886.3 65C872.7 65 845.3 65 818 64C790.7 63 763.3 61 736.2 64C709 67 682 75 654.8 81C627.7 87 600.3 91 573 85C545.7 79 518.3 63 491 57C463.7 51 436.3 55 409 62C381.7 69 354.3 79 327 81C299.7 83 272.3 77 245.2 69C218 61 191 51 163.8 47C136.7 43 109.3 45 82 48C54.7 51 27.3 55 13.7 57L0 59Z" fill="#373737"></path><path d="M0 217L13.7 217C27.3 217 54.7 217 82 222C109.3 227 136.7 237 163.8 246C191 255 218 263 245.2 259C272.3 255 299.7 239 327 238C354.3 237 381.7 251 409 266C436.3 281 463.7 297 491 301C518.3 305 545.7 297 573 290C600.3 283 627.7 277 654.8 275C682 273 709 275 736.2 272C763.3 269 790.7 261 818 251C845.3 241 872.7 229 886.3 223L900 217L900 161L886.3 161C872.7 161 845.3 161 818 166C790.7 171 763.3 181 736.2 188C709 195 682 199 654.8 208C627.7 217 600.3 231 573 228C545.7 225 518.3 205 491 190C463.7 175 436.3 165 409 161C381.7 157 354.3 159 327 169C299.7 179 272.3 197 245.2 191C218 185 191 155 163.8 138C136.7 121 109.3 117 82 121C54.7 125 27.3 137 13.7 143L0 149Z" fill="#262626"></path><path d="M0 325L13.7 354C27.3 383 54.7 441 82 466C109.3 491 136.7 483 163.8 473C191 463 218 451 245.2 446C272.3 441 299.7 443 327 435C354.3 427 381.7 409 409 412C436.3 415 463.7 439 491 451C518.3 463 545.7 463 573 473C600.3 483 627.7 503 654.8 494C682 485 709 447 736.2 444C763.3 441 790.7 473 818 487C845.3 501 872.7 497 886.3 495L900 493L900 215L886.3 221C872.7 227 845.3 239 818 249C790.7 259 763.3 267 736.2 270C709 273 682 271 654.8 273C627.7 275 600.3 281 573 288C545.7 295 518.3 303 491 299C463.7 295 436.3 279 409 264C381.7 249 354.3 235 327 236C299.7 237 272.3 253 245.2 257C218 261 191 253 163.8 244C136.7 235 109.3 225 82 220C54.7 215 27.3 215 13.7 215L0 215Z" fill="#212121"></path><path d="M0 601L13.7 601C27.3 601 54.7 601 82 601C109.3 601 136.7 601 163.8 601C191 601 218 601 245.2 601C272.3 601 299.7 601 327 601C354.3 601 381.7 601 409 601C436.3 601 463.7 601 491 601C518.3 601 545.7 601 573 601C600.3 601 627.7 601 654.8 601C682 601 709 601 736.2 601C763.3 601 790.7 601 818 601C845.3 601 872.7 601 886.3 601L900 601L900 491L886.3 493C872.7 495 845.3 499 818 485C790.7 471 763.3 439 736.2 442C709 445 682 483 654.8 492C627.7 501 600.3 481 573 471C545.7 461 518.3 461 491 449C463.7 437 436.3 413 409 410C381.7 407 354.3 425 327 433C299.7 441 272.3 439 245.2 444C218 449 191 461 163.8 471C136.7 481 109.3 489 82 464C54.7 439 27.3 381 13.7 352L0 323Z" fill="#1d1d1d"></path></svg>